#!OML:ASF E:\id_vita\Project 1\Capture day 1\Session 1\Female.ASF
:FULLY-SPECIFIED
:DEGREES
516
root -0.83761 16.2231 0.687184 536.155 95.262 522.117
lowerback -14.0772 2.16621 -1.89626
upperback -3.9187 3.28332 0.360137
thorax 3.61807 1.69351 2.00178
lowerneck 6.37613 0.436601 -6.25816
upperneck -3.48915 0.422058 7.04856
head -2.30951 0.10602 3.43578
rclavicle 1.26453e-015 -1.73937e-014
rhumerus -24.1363 -8.54243 -92.148
rradius 22.2623
rwrist 17.0066
rhand -11.9166 10.1
rfingers 7.12502
rthumb 14.1373 -19.3991
lclavicle 1.26453e-015 -1.73937e-014
lhumerus -60.518 53.4288 38.2329
lradius 11.387
lwrist -78.4015
lhand -8.21792 23.4661
lfingers 7.12502
lthumb 17.6991 52.6806
rfemur 5.70537 4.73368 27.4539
rtibia 8.34294
rfoot -13.9009 5.18382
rtoes -16.256
lfemur -42.9275 -10.0108 -14.085
ltibia 18.284
lfoot -10.3062 11.3926
ltoes -6.04846
517
root -0.670285 16.2211 0.679417 537.375 95.6787 523.196
lowerback -14.4126 2.21868 -1.86924
upperback -3.94796 3.35809 0.364538
thorax 3.76647 1.72995 2.01998
lowerneck 6.23369 0.528412 -6.22259
upperneck -3.46288 0.552497 7.01669
head -2.28318 0.173647 3.41068
rclavicle -2.04313e-014 3.47873e-015
rhumerus -24.3477 -8.68877 -91.9666
rradius 21.708
rwrist 16.957
rhand -12.3152 10.9322
rfingers 7.12502
rthumb 13.7533 -18.5932
lclavicle -2.04313e-014 3.47873e-015
lhumerus -62.4228 54.1025 35.9879
lradius 11.3025
lwrist -79.7463
lhand -8.10448 23.53
lfingers 7.12502
lthumb 17.8083 52.7346
rfemur 5.92994 4.9024 27.1997
rtibia 8.7403
rfoot -13.167 5.91556
rtoes -15.6027
lfemur -42.8505 -9.57666 -14.4309
ltibia 19.1249
lfoot -9.87823 11.2604
ltoes -6.94584
518
root -0.501452 16.2212 0.674674 537.912 95.7479 523.805
lowerback -14.4735 2.13555 -1.96817
upperback -3.99072 3.2631 0.419049
thorax 3.74984 1.68434 2.11833
lowerneck 6.1292 0.547859 -5.93849
upperneck -3.29242 0.581532 6.67082
head -2.20079 0.194425 3.23009
rclavicle 1.36874e-014 5.46658e-015
rhumerus -24.6911 -9.13337 -91.643
rradius 21.2525
rwrist 17.5468
rhand -12.3999 11.4392
rfingers 7.12502
rthumb 13.6716 -18.0918
lclavicle 1.36874e-014 5.46658e-015
lhumerus -62.3076 53.5628 36.4268
lradius 11.3604
lwrist -79.0437
lhand -7.73464 23.9383
lfingers 7.12502
lthumb 18.1642 53.1102
rfemur 6.33057 4.69699 27.0297
rtibia 9.24389
rfoot -12.7931 6.67608
rtoes -14.8968
lfemur -42.6543 -9.29751 -14.8847
ltibia 20.0263
lfoot -9.4933 10.8278
ltoes -7.05602
519
root -0.31002 16.2285 0.66492 537.975 96.2512 524.267
lowerback -14.4556 2.23365 -1.86787
upperback -3.95143 3.37289 0.466637
thorax 3.77902 1.73693 2.13061
lowerneck 6.09894 0.529242 -5.54734
upperneck -3.04288 0.559064 6.25338
head -2.10051 0.188934 3.00759
rclavicle -8.22472e-015 -2.78299e-015
rhumerus -25.1707 -9.55326 -91.3069
rradius 20.9093
rwrist 18.1564
rhand -11.8569 10.6406
rfingers 7.12502
rthumb 14.1949 -18.8544
lclavicle -8.22472e-015 -2.78299e-015
lhumerus -61.7333 52.4896 37.6092
lradius 11.5071
lwrist -77.573
lhand -7.50574 24.3257
lfingers 7.12502
lthumb 18.3844 53.477
rfemur 6.91796 4.8833 26.8484
rtibia 10.1399
rfoot -12.4318 7.55285
rtoes -13.6969
lfemur -42.0099 -9.30056 -14.9534
ltibia 20.8803
lfoot -8.72796 11.0445
ltoes -8.1382
520
root -0.152265 16.2376 0.65807 538.354 96.3396 524.296
lowerback -14.717 2.1658 -1.85807
upperback -4.15686 3.29668 0.469915
thorax 3.70792 1.70755 2.12253
lowerneck 6.08423 0.543416 -5.21155
upperneck -2.97833 0.587507 5.92892
head -2.07009 0.206978 2.83047
rclavicle 8.00885e-015 1.2921e-014
rhumerus -25.518 -9.83277 -91.0372
rradius 20.5365
rwrist 18.3472
rhand -11.1979 9.49485
rfingers 7.12502
rthumb 14.8298 -19.9545
lclavicle 8.00885e-015 1.2921e-014
lhumerus -61.8439 51.9826 37.7932
lradius 11.5549
lwrist -76.9021
lhand -7.3649 24.3712
lfingers 7.12502
lthumb 18.5198 53.5097
rfemur 6.59105 4.65654 26.6274
rtibia 10.9831
rfoot -11.5118 8.65945
rtoes -13.1214
lfemur -42.4502 -9.16224 -15.0842
ltibia 21.7977
lfoot -7.99593 10.5312
ltoes -10.2887
521
root -0.00476901 16.2446 0.652097 539.981 96.1812 525.405
lowerback -15.0128 2.0168 -2.05888
upperback -4.42855 3.15069 0.443987
thorax 3.57856 1.64686 2.18957
lowerneck 6.01946 0.591314 -5.17874
upperneck -2.83063 0.653131 5.94895
head -2.01344 0.240111 2.82631
rclavicle -2.66899e-014 4.37326e-015
rhumerus -25.8728 -10.3653 -90.6588
rradius 20.1926
rwrist 18.6189
rhand -11.0528 9.60617
rfingers 7.12502
rthumb 14.9696 -19.8328
lclavicle -2.66899e-014 4.37326e-015
lhumerus -62.425 51.9065 37.2782
lradius 11.5073
lwrist -76.8882
lhand -7.30784 24.2707
lfingers 7.12502
lthumb 18.5747 53.4039
rfemur 5.85794 4.21069 26.278
rtibia 12.1998
rfoot -10.6362 9.68569
rtoes -12.8921
lfemur -43.0996 -8.79313 -15.5799
ltibia 22.6712
lfoot -8.43356 9.29097
ltoes -9.76678
522
root 0.193692 16.2548 0.636822 542.533 96.7824 528.146
lowerback -15.2815 2.15458 -2.14176
upperback -4.43283 3.35446 0.381378
thorax 3.70715 1.74563 2.21951
lowerneck 6.05543 0.701558 -5.23333
upperneck -2.62688 0.794377 6.07618
head -1.9642 0.30845 2.87285
rclavicle -6.60183e-015 9.93923e-016
rhumerus -26.4754 -10.7412 -90.316
rradius 19.915
rwrist 18.8986
rhand -11.7607 10.5536
rfingers 7.12502
rthumb 14.2876 -18.9349
lclavicle -6.60183e-015 9.93923e-016
lhumerus -63.9604 52.0671 35.6137
lradius 11.4166
lwrist -77.534
lhand -7.49893 24.2385
lfingers 7.12502
lthumb 18.3909 53.3891
rfemur 5.79072 3.89983 25.5807
rtibia 13.7911
rfoot -10.0885 11.1951
rtoes -12.042
lfemur -42.563 -8.48608 -16.0979
ltibia 23.4821
lfoot -8.56441 8.55571
ltoes -10.15
